<?xml version="1.0" standalone="no"?>
<!DOCTYPE svg PUBLIC "-//W3C//DTD SVG 20010904//EN"
 "http://www.w3.org/TR/2001/REC-SVG-20010904/DTD/svg10.dtd">
<svg version="1.0" xmlns="http://www.w3.org/2000/svg"
 width="866.000000pt" height="866.000000pt" viewBox="0 0 866.000000 866.000000"
 preserveAspectRatio="xMidYMid meet">
<metadata>
Created by potrace 1.14, written by Peter Selinger 2001-2017
</metadata>
<g transform="translate(0.000000,866.000000) scale(0.100000,-0.100000)"
fill="#000000" stroke="none">
<path d="M5014 7723 c-67 -99 -82 -108 -131 -76 -25 17 -26 17 -42 -6 -9 -14
-33 -42 -53 -65 -37 -39 -46 -56 -30 -56 4 0 37 -24 72 -54 35 -30 67 -54 70
-54 3 1 23 -2 45 -7 22 -5 49 -9 59 -10 11 -1 21 -10 22 -20 3 -23 -46 -73
-69 -69 -10 1 -34 -13 -54 -32 -30 -28 -43 -34 -81 -34 -30 0 -49 5 -57 16
-11 16 -23 17 -108 12 -35 -2 -38 -5 -50 -48 -7 -25 -18 -46 -25 -46 -7 -1
-19 -2 -27 -3 -9 0 -21 -13 -27 -28 -15 -37 -16 -45 -6 -66 15 -30 1 -54 -30
-52 -30 2 -72 -14 -72 -27 0 -4 -5 -8 -11 -8 -14 0 -120 105 -118 117 6 33
-26 51 -60 33 -16 -8 -22 -7 -31 10 -6 11 -15 20 -21 20 -6 0 -30 20 -55 44
-35 35 -47 42 -57 32 -6 -7 -20 -15 -29 -19 -10 -3 -18 -13 -18 -20 0 -8 -7
-20 -15 -27 -8 -7 -13 -16 -10 -20 3 -4 -1 -13 -9 -19 -8 -7 -13 -26 -11 -46
3 -47 -34 -85 -76 -80 -26 3 -28 2 -18 -17 7 -13 7 -18 1 -14 -6 3 -14 1 -17
-5 -4 -5 -12 -8 -19 -6 -18 7 -43 -35 -42 -73 1 -33 -28 -73 -51 -69 -21 4
-33 -2 -33 -17 0 -9 -7 -14 -17 -13 -10 1 -43 -9 -74 -23 -47 -21 -67 -25
-110 -21 -65 7 -120 6 -176 -1 -36 -5 -50 -1 -90 24 -26 17 -54 30 -63 30 -9
0 -20 3 -24 7 -3 4 -12 8 -19 9 -48 8 -68 14 -93 27 -16 8 -43 13 -60 12 -30
-1 -31 -1 -17 27 13 25 12 33 -11 84 -28 60 -28 97 0 140 9 13 12 24 8 24 -5
0 -3 4 4 9 10 6 7 19 -17 60 -17 28 -31 55 -31 59 0 4 -11 29 -25 56 -14 27
-25 51 -25 53 0 1 19 15 43 30 23 16 48 34 55 41 15 14 9 42 -8 42 -6 0 -9 4
-6 9 3 5 -27 8 -67 7 -39 -1 -90 2 -112 7 -22 5 -51 11 -65 12 -14 2 -25 4
-25 5 0 1 -11 3 -25 5 -23 3 -25 0 -26 -33 0 -21 -3 -58 -6 -84 -5 -45 -1 -53
25 -49 7 1 11 -15 8 -33 -1 -4 -4 -33 -7 -65 -6 -62 -11 -110 -13 -127 0 -6
-13 -11 -28 -11 -16 -1 -44 -4 -63 -8 -49 -10 -112 -8 -143 4 -23 9 -27 8 -28
-7 -2 -27 2 -45 15 -72 6 -14 11 -47 9 -75 -2 -27 -4 -61 -5 -75 -2 -32 -15
-41 -44 -30 -12 5 -24 6 -27 3 -11 -11 -152 -9 -172 2 -20 12 -73 12 -155 2
-24 -3 -49 -2 -56 4 -7 5 -28 11 -48 13 -28 3 -39 -1 -46 -15 -6 -10 -10 -22
-9 -26 3 -17 -14 -73 -22 -73 -5 0 -9 -7 -9 -16 0 -8 -13 -32 -29 -52 -15 -20
-34 -53 -41 -72 -8 -19 -22 -47 -31 -61 -10 -14 -16 -29 -13 -32 8 -8 -66 -78
-77 -72 -5 4 -9 3 -10 -2 -6 -47 -4 -66 6 -77 7 -7 22 -30 33 -52 11 -21 30
-50 42 -64 12 -14 25 -30 28 -36 4 -5 17 -17 30 -26 13 -9 34 -30 47 -48 21
-28 22 -34 10 -57 -8 -15 -12 -30 -9 -35 5 -8 -12 -12 -31 -8 -5 1 -22 3 -36
5 -15 1 -31 5 -37 9 -6 3 -20 -4 -32 -16 -14 -15 -23 -19 -28 -11 -9 14 -119
63 -126 56 -5 -6 -106 57 -106 66 0 6 -20 15 -75 36 -11 5 -30 9 -42 10 -12 1
-29 9 -38 18 -15 16 -29 21 -39 15 -3 -2 -16 8 -29 21 -21 19 -33 22 -69 18
-24 -4 -46 -6 -50 -6 -15 -2 -78 -64 -78 -77 0 -13 -100 -85 -125 -91 -5 -1
-21 -4 -34 -7 -13 -3 -32 -13 -43 -23 -12 -10 -34 -17 -58 -16 -32 1 -40 -3
-40 -17 0 -10 -3 -31 -6 -48 -5 -25 -3 -30 12 -29 13 2 19 -5 19 -20 0 -29 29
-58 47 -47 7 5 18 9 23 10 50 9 68 15 109 34 52 23 76 21 76 -8 0 -10 5 -23
11 -29 13 -13 18 -134 6 -150 -5 -7 -6 -13 -3 -13 4 0 1 -10 -6 -22 -7 -13
-13 -25 -13 -28 -4 -18 -35 -79 -43 -84 -5 -3 -8 -19 -7 -36 1 -16 -3 -34 -10
-40 -11 -9 -11 -30 -2 -90 7 -38 -15 -93 -38 -97 -24 -4 -115 16 -115 25 0 4
-11 20 -25 36 l-25 29 -8 -24 c-5 -13 -13 -40 -17 -59 -4 -19 -10 -39 -13 -45
-6 -10 -8 -16 -14 -45 -2 -8 -7 -21 -12 -28 -4 -7 -10 -34 -12 -60 -5 -50 -10
-87 -13 -87 -2 0 -5 -11 -14 -51 -2 -7 -9 -20 -17 -30 -8 -9 -13 -18 -11 -18
2 -1 -1 -17 -7 -36 -15 -48 -23 -87 -28 -140 -8 -96 -13 -136 -18 -157 -6 -27
16 -47 41 -36 10 5 32 8 48 7 28 -2 98 8 155 22 59 14 90 16 90 4 0 -16 25
-40 42 -40 8 0 23 -8 34 -18 29 -27 88 -71 94 -70 3 1 31 -16 62 -36 46 -31
56 -42 48 -55 -5 -9 -62 -71 -127 -138 -131 -136 -132 -137 -181 -202 -19 -25
-39 -48 -44 -50 -5 -2 -18 -17 -28 -33 -16 -27 -88 -113 -131 -159 -9 -9 -40
-20 -68 -24 -28 -4 -51 -10 -52 -13 -7 -66 -16 -98 -38 -131 -8 -13 -16 -31
-18 -39 -1 -9 -9 -19 -17 -24 -9 -5 -16 -16 -16 -23 0 -8 -4 -15 -10 -15 -5 0
-7 -7 -3 -16 9 -25 10 -77 2 -95 -6 -11 -2 -22 11 -34 13 -12 17 -23 12 -34
-5 -9 -8 -23 -7 -31 1 -8 -3 -21 -8 -27 -5 -7 -6 -13 -3 -13 4 0 -2 -13 -12
-28 -19 -26 -17 -52 7 -72 4 -3 19 -24 34 -47 15 -24 34 -43 42 -43 16 0 16
-1 20 -38 1 -13 14 -36 29 -51 25 -26 25 -28 9 -42 -10 -8 -30 -21 -44 -28
-33 -16 -81 -87 -84 -123 -2 -18 -21 -45 -54 -78 -55 -54 -62 -57 -81 -36 -15
19 -32 12 -52 -22 -9 -16 -42 -41 -72 -57 -30 -16 -53 -31 -52 -34 4 -6 20
-109 25 -158 0 -7 8 -13 16 -13 8 0 15 -4 15 -9 0 -12 51 -29 68 -24 14 5 16
39 2 48 -17 11 -11 25 11 25 11 0 18 -4 14 -9 -3 -5 -1 -12 4 -16 6 -3 8 -11
5 -19 -5 -14 42 -40 57 -31 5 4 9 -1 9 -9 0 -9 5 -16 10 -16 6 0 10 -5 10 -11
0 -6 9 -22 20 -36 11 -14 18 -29 15 -33 -3 -5 15 -20 40 -34 25 -15 45 -30 45
-34 0 -4 19 -29 43 -55 48 -54 74 -59 121 -23 28 21 34 22 51 10 10 -8 13 -14
7 -14 -23 0 -12 -31 14 -41 20 -7 32 -6 50 6 26 17 38 19 30 6 -8 -12 9 -17
121 -41 97 -20 176 -20 220 2 15 8 20 18 18 37 -2 14 -4 26 -4 27 -1 1 -36 -5
-78 -12 -60 -11 -79 -11 -84 -2 -5 7 -3 15 3 19 6 4 12 24 13 45 2 22 4 42 4
46 1 4 27 20 59 35 31 15 59 30 62 33 3 4 21 12 40 20 19 8 37 16 40 20 8 9
176 90 187 90 6 0 13 5 15 11 2 5 10 11 18 12 8 2 22 7 30 12 8 5 40 13 70 17
89 11 112 18 175 47 93 44 91 44 242 47 152 4 152 4 159 -51 1 -11 5 -42 9
-70 4 -27 8 -77 9 -110 4 -99 4 -98 23 -90 57 24 88 24 133 2 32 -16 63 -22
110 -22 58 0 69 3 95 28 16 15 35 27 41 27 6 0 20 10 31 23 11 12 38 37 59 56
22 18 54 47 71 64 31 29 58 32 35 5 -8 -10 2 -30 39 -80 27 -38 46 -68 42 -68
-5 0 -3 -4 4 -8 6 -4 13 -14 15 -22 3 -14 7 -21 36 -55 7 -8 10 -15 7 -15 -3
0 7 -18 22 -41 20 -30 28 -37 35 -26 4 8 21 20 38 27 16 7 30 16 30 20 0 4 12
12 28 19 15 7 68 37 118 67 51 30 95 54 99 54 4 0 13 6 19 14 6 8 21 17 34 21
21 6 22 4 16 -29 -5 -35 -2 -40 76 -116 44 -44 84 -80 90 -80 5 0 11 -9 15
-19 3 -11 11 -21 18 -23 7 -2 43 -21 80 -43 l69 -40 -7 -40 c-7 -47 -8 -75 -1
-82 2 -3 49 -4 103 -4 87 1 99 -1 101 -17 1 -9 4 -55 6 -102 2 -47 5 -88 5
-92 1 -4 9 -7 19 -7 44 -2 64 -4 172 -18 63 -8 122 -17 130 -20 8 -4 19 -5 25
-4 5 1 22 3 38 3 25 1 32 9 58 63 16 34 29 69 29 78 0 8 5 17 12 19 15 5 14
131 -1 136 -6 2 -9 7 -7 11 3 4 -13 77 -35 162 -45 171 -50 206 -35 218 6 5
45 19 86 31 41 12 93 30 115 40 22 10 51 22 65 25 24 7 165 79 185 95 6 4 32
12 59 18 52 11 110 -1 103 -22 -2 -6 2 -26 10 -43 7 -18 13 -34 12 -35 0 -2 2
-10 5 -18 3 -8 21 -62 41 -120 40 -115 58 -188 51 -207 -3 -7 -1 -15 4 -18 6
-4 10 -15 10 -26 0 -22 4 -23 31 -8 17 9 53 16 164 35 50 8 146 28 206 44 65
16 67 16 115 -6 27 -12 65 -33 84 -47 34 -24 35 -24 60 -6 14 9 36 20 50 24
19 5 22 4 10 -4 -8 -6 -12 -11 -9 -11 3 0 0 -21 -6 -47 -18 -67 -17 -64 -16
-108 l1 -41 158 -12 c86 -7 172 -12 190 -12 36 0 132 24 280 71 52 16 98 26
103 23 5 -3 7 -23 6 -45 -2 -21 0 -39 4 -39 3 0 9 -14 13 -30 3 -17 14 -33 23
-37 24 -8 80 -67 88 -93 3 -11 10 -20 13 -20 4 0 7 -32 7 -70 0 -39 2 -69 5
-68 30 14 222 113 245 127 24 14 32 15 42 5 7 -7 13 -16 13 -21 0 -4 11 -21
23 -37 23 -29 25 -29 72 -17 26 6 49 10 52 7 10 -10 13 -65 4 -88 -11 -29 -4
-43 25 -52 24 -7 36 -48 24 -81 -4 -11 -20 -27 -35 -35 -30 -16 -80 -94 -70
-110 3 -5 3 -15 -1 -21 -4 -7 -8 -51 -9 -98 -1 -47 -7 -95 -13 -107 -15 -29
-9 -70 15 -97 11 -12 28 -34 38 -49 9 -16 24 -28 31 -28 8 0 17 -7 20 -15 4
-8 17 -15 29 -15 44 0 55 10 55 51 0 38 29 111 49 123 5 4 12 25 16 47 5 29
18 52 43 76 20 19 36 44 37 54 1 11 11 29 22 42 12 12 24 41 28 63 4 27 19 55
43 81 35 38 123 93 149 93 7 0 28 -13 46 -30 19 -16 37 -27 40 -24 5 5 28 11
50 13 4 1 7 8 7 17 0 9 11 30 25 48 14 17 29 36 34 42 16 20 41 73 41 87 0 8
-9 17 -21 20 -12 3 -19 10 -16 15 3 4 8 21 11 36 5 25 3 27 -18 22 -16 -4 -35
2 -59 18 -19 13 -43 26 -52 28 -23 4 -19 23 6 24 11 1 45 27 75 58 30 31 58
56 63 56 4 0 13 11 19 25 7 15 20 25 32 25 11 0 23 7 27 15 3 9 17 22 32 29
14 8 40 28 56 45 26 26 35 30 65 24 19 -3 43 -10 52 -14 12 -7 20 -4 26 7 6
10 24 18 46 19 41 3 86 38 86 67 0 25 18 58 42 78 18 14 18 17 3 48 -9 17 -20
32 -25 32 -4 0 -22 27 -39 59 -26 51 -29 64 -20 89 5 16 9 34 7 39 -2 6 16 40
40 75 37 56 46 65 67 60 21 -4 25 0 25 18 0 13 -7 28 -16 34 -12 9 -13 17 -5
40 6 15 8 32 5 38 -4 6 1 8 14 4 21 -7 25 0 35 82 2 12 14 30 28 39 13 9 30
25 37 35 9 12 26 18 53 18 41 0 65 24 39 40 -7 4 -9 16 -6 27 9 27 -26 69 -67
82 -17 6 -56 13 -86 16 -29 4 -63 13 -75 20 -12 8 -39 14 -60 13 -35 -1 -44 4
-83 48 -25 27 -63 86 -85 132 -38 78 -46 87 -76 83 -13 -2 -55 21 -78 43 -6 6
-21 18 -33 26 -11 8 -21 20 -21 27 0 7 -9 13 -20 13 -11 0 -20 -4 -20 -10 0
-5 9 -32 20 -60 11 -28 20 -64 20 -79 0 -16 6 -31 14 -34 7 -3 16 -15 19 -26
3 -12 2 -19 -2 -17 -4 3 -7 -8 -6 -22 0 -24 -4 -27 -35 -27 -30 0 -35 3 -37
25 -2 29 -10 67 -25 127 -9 37 -14 42 -47 47 -20 3 -45 8 -56 10 -11 2 -26 5
-33 5 -6 1 -33 22 -60 49 -91 91 -164 141 -197 134 -26 -5 -89 20 -102 41 -12
17 -88 55 -127 62 -31 6 -72 -6 -86 -25 -3 -3 -27 -14 -55 -25 -27 -10 -59
-27 -70 -37 -13 -12 -28 -17 -42 -13 -24 6 -27 -2 -23 -70 1 -24 -3 -31 -19
-32 -14 -1 -21 4 -21 17 0 25 -54 44 -70 25 -13 -16 -40 -9 -40 9 0 7 11 23
25 36 28 26 33 50 10 50 -17 0 -21 35 -5 45 6 4 7 13 1 23 -9 17 -2 30 74 128
16 22 48 62 71 89 44 52 56 78 39 80 -24 2 -55 17 -55 26 0 6 7 23 15 40 9 16
18 46 20 67 7 71 75 243 109 277 6 7 27 29 46 51 20 21 68 61 108 88 92 62
137 106 135 131 -2 34 -15 65 -27 66 -6 1 -47 2 -91 4 -44 1 -80 3 -80 4 0 10
-137 15 -170 7 -20 -5 -27 -2 -34 16 -9 25 -7 100 2 116 4 5 30 9 58 8 38 -2
53 2 57 13 3 9 12 22 19 29 17 17 11 64 -8 68 -8 2 -32 8 -54 13 -22 5 -62 12
-90 16 -27 3 -60 8 -72 10 -27 4 -93 25 -115 36 -10 5 -29 9 -43 9 -14 0 -25
5 -25 11 0 5 -4 8 -9 4 -5 -3 -29 2 -53 11 -24 8 -49 16 -55 16 -7 1 -13 4
-13 7 0 3 -14 7 -31 7 -34 1 -52 20 -43 44 16 40 14 82 -6 127 -14 31 -24 81
-29 145 -4 53 -13 103 -19 110 -5 7 -11 18 -11 23 -1 6 -11 10 -23 10 -13 0
-22 7 -24 19 -4 27 -23 36 -71 31 -40 -4 -42 -2 -53 29 -20 61 -139 206 -170
206 -5 0 -10 4 -10 8 0 9 -123 84 -144 89 -24 5 -131 47 -136 54 -6 8 -117 24
-145 21 -11 -1 -44 -4 -73 -7 l-53 -4 -15 37 c-21 50 -53 123 -65 144 -5 10
-9 25 -9 33 0 23 -31 66 -42 59 -6 -4 -8 2 -3 15 3 11 8 33 11 47 3 15 6 32 7
38 1 6 4 13 7 16 3 3 16 36 29 75 13 38 31 75 41 82 14 10 18 26 18 68 -1 54
13 85 38 85 7 0 20 8 30 18 10 9 19 16 21 14 2 -2 19 2 38 9 29 11 35 19 41
53 3 23 15 68 25 100 11 33 21 73 23 90 3 17 8 46 12 64 6 31 0 38 -28 33 -5
0 -8 9 -8 20 0 18 -4 20 -27 16 -89 -19 -93 -19 -93 -6 0 8 -14 23 -30 34 -16
11 -30 23 -30 28 0 4 -7 7 -15 7 -9 0 -18 7 -21 15 -4 8 -10 15 -14 15 -14 0
-150 92 -150 102 0 5 -11 21 -24 35 -13 14 -23 31 -21 37 2 6 6 29 9 51 3 22
11 65 17 95 16 69 16 86 1 82 -24 -5 -107 -46 -122 -60 -12 -13 -15 -12 -23 6
-5 12 -6 29 -2 39 5 10 9 20 9 23 1 3 12 22 25 43 24 40 22 59 -4 37 -11 -9
-18 -10 -28 -1 -11 8 -22 -1 -53 -46z m-2064 -857 c0 -3 -4 -8 -10 -11 -5 -3
-10 -1 -10 4 0 6 5 11 10 11 6 0 10 -2 10 -4z m-2584 -4382 c7 -28 -10 -54
-25 -38 -11 11 -3 64 10 64 5 0 12 -12 15 -26z"/>
<path d="M8457 2868 c-3 -24 -5 -44 -4 -45 2 -1 18 -5 36 -8 23 -4 37 -1 42 7
14 22 10 27 -27 34 -31 6 -35 10 -31 30 2 13 1 24 -3 24 -4 0 -10 -19 -13 -42z"/>
<path d="M661 2112 c-19 -15 -48 -31 -64 -37 -18 -6 -31 -18 -33 -29 -3 -22
46 -73 70 -73 25 0 28 28 6 49 -11 10 -20 21 -20 24 0 4 21 26 48 50 52 48 47
59 -7 16z"/>
</g>
</svg>
